<?xml version="1.0" encoding="UTF-8"?>
<svg width="27px" height="18px" viewBox="0 0 27 18" version="1.1" xmlns="http://www.w3.org/2000/svg" xmlns:xlink="http://www.w3.org/1999/xlink">
    <!-- Generator: sketchtool 49.2 (51160) - http://www.bohemiancoding.com/sketch -->
    <title>C82B7847-0FE0-4139-9786-38BD31B0B4AD</title>
    <desc>Created with sketchtool.</desc>
    <defs></defs>
    <g id="Design" stroke="none" stroke-width="1" fill="none" fill-rule="evenodd">
        <g id="Artboard" transform="translate(-224.000000, -1010.000000)" fill="#FEFEFE">
            <g id="Соцсети" transform="translate(50.000000, 1003.000000)">
                <g id="Group-2" transform="translate(174.000000, 7.000000)">
                    <polygon id="Fill-9" points="24.0512927 6.94880238 24.0512927 4 21.9488579 4 21.9488579 6.94880238 19 6.94880238 19 9.05119762 21.9488579 9.05119762 21.9488579 12 24.0512927 12 24.0512927 9.05119762 27 9.05119762 27 6.94880238"></polygon>
                    <path d="M9.19184828,7.19527631 L9.19184828,10.7886433 L14.1022923,10.7886433 C13.9502829,11.5441199 13.6418462,12.2370279 13.0953322,12.8216439 C11.1269003,14.9279621 7.45723924,14.9066246 5.35692402,12.7866696 C3.25644516,10.6665542 3.27935293,7.2480586 5.40830287,5.15617931 C7.43318608,3.16681638 10.6954161,3.08098499 12.6676114,4.97264453 L12.663848,4.97681578 L15.3402937,2.35246103 C11.7553913,-0.845439878 6.22496486,-0.796187102 2.73414802,2.58123777 C-0.877098244,6.07465534 -0.916041452,11.7833248 2.64693486,15.3239095 C6.20974755,18.8644942 12.3873185,18.8997894 15.7264532,15.3823069 C17.7416824,13.2591433 18.3214126,10.2141346 17.8406767,7.19527631 L9.19184828,7.19527631 Z" id="Fill-11"></path>
                </g>
            </g>
        </g>
    </g>
</svg>