<?xml version="1.0" encoding="UTF-8"?>
<svg width="25px" height="26px" viewBox="0 0 25 26" version="1.1" xmlns="http://www.w3.org/2000/svg" xmlns:xlink="http://www.w3.org/1999/xlink">
    <!-- Generator: sketchtool 49.2 (51160) - http://www.bohemiancoding.com/sketch -->
    <title>78D4CA0A-3ECD-4CDE-8CFC-EACBE5A7E3B5</title>
    <desc>Created with sketchtool.</desc>
    <defs></defs>
    <g id="Design" stroke="none" stroke-width="1" fill="none" fill-rule="evenodd">
        <g id="Artboard" transform="translate(-282.000000, -1006.000000)" fill="#FEFEFE">
            <g id="Соцсети" transform="translate(50.000000, 1003.000000)">
                <g id="Group-4" transform="translate(232.000000, 3.000000)">
                    <path d="M12.5,0 C9.10523666,0 8.67959047,0.0150118497 7.34642497,0.0782012635 C6.01577711,0.141565234 5.10725076,0.361157175 4.3121853,0.682515492 C3.49009735,1.01469631 2.79305136,1.45929144 2.09801947,2.1819549 C1.40315542,2.90479292 0.975830816,3.62972561 0.656428332,4.48452826 C0.347432024,5.31157645 0.135951662,6.25645019 0.0753608593,7.64033327 C0.014434374,9.02683469 0,9.4695097 0,13.0000873 C0,16.5306649 0.014434374,16.9733399 0.0753608593,18.3600158 C0.135951662,19.7435498 0.347432024,20.6885981 0.656428332,21.5156463 C0.975830816,22.3704489 1.40315542,23.0955562 2.09801947,23.8180451 C2.79305136,24.5408831 3.49009735,24.9854783 4.3121853,25.3176591 C5.10725076,25.6390174 6.01577711,25.8587839 7.34642497,25.9217987 C8.67959047,25.9851627 9.10523666,26 12.5,26 C15.8949312,26 16.3205774,25.9851627 17.6537429,25.9217987 C18.9842229,25.8587839 19.8929171,25.6390174 20.6879825,25.3176591 C21.5100705,24.9854783 22.2071165,24.5408831 22.9019805,23.8180451 C23.5968446,23.0955562 24.024337,22.3704489 24.3435717,21.5156463 C24.6527358,20.6885981 24.8640483,19.7435498 24.9246391,18.3600158 C24.9855656,16.9733399 25,16.5306649 25,13.0000873 C25,9.4695097 24.9855656,9.02683469 24.9246391,7.64033327 C24.8640483,6.25645019 24.6527358,5.31157645 24.3435717,4.48452826 C24.024337,3.62972561 23.5968446,2.90479292 22.9019805,2.1819549 C22.2071165,1.45929144 21.5100705,1.01469631 20.6879825,0.682515492 C19.8929171,0.361157175 18.9842229,0.141565234 17.6537429,0.0782012635 C16.3205774,0.0150118497 15.8949312,0 12.5,0 M12.5,2.34237222 C15.8376972,2.34237222 16.2329641,2.35563851 17.5510238,2.41830425 C18.7697214,2.47608242 19.4316885,2.68764476 19.8721047,2.86586684 C20.455522,3.10169253 20.8719369,3.38342654 21.309332,3.83814594 C21.7468949,4.29321446 22.0176234,4.72628886 22.2445451,5.33304688 C22.4155757,5.79108285 22.6191675,6.47953326 22.6748909,7.74698722 C22.7349782,9.11777857 22.7477341,9.52885887 22.7477341,13.0000873 C22.7477341,16.4711411 22.7349782,16.882396 22.6748909,18.2531873 C22.6191675,19.5206413 22.4155757,20.2089171 22.2445451,20.6669531 C22.0176234,21.2738857 21.7468949,21.7069601 21.309332,22.1618541 C20.8719369,22.616748 20.455522,22.898482 19.8721047,23.1343077 C19.4316885,23.3123552 18.7697214,23.5242667 17.5510238,23.5820449 C16.2331319,23.644536 15.8378651,23.6576278 12.5,23.6576278 C9.16213494,23.6576278 8.76686808,23.644536 7.44897617,23.5820449 C6.23027862,23.5242667 5.56831151,23.3123552 5.12789527,23.1343077 C4.54447801,22.898482 4.12806311,22.616748 3.69066801,22.1618541 C3.25327291,21.7069601 2.98237664,21.2738857 2.75562269,20.6669531 C2.5844243,20.2089171 2.38083249,19.5206413 2.32527694,18.2531873 C2.26518966,16.882396 2.25226586,16.4711411 2.25226586,13.0000873 C2.25226586,9.52885887 2.26518966,9.11777857 2.32527694,7.74698722 C2.38083249,6.47953326 2.5844243,5.79108285 2.75562269,5.33304688 C2.98237664,4.72628886 3.25327291,4.29321446 3.69066801,3.8383205 C4.12806311,3.38342654 4.54447801,3.10169253 5.12789527,2.86586684 C5.56831151,2.68764476 6.23027862,2.47608242 7.44897617,2.41830425 C8.76703592,2.35563851 9.16230279,2.34237222 12.5,2.34237222" id="Fill-13"></path>
                    <path d="M12.499915,17.7192595 C10.1697151,17.7192595 8.28074052,15.8302849 8.28074052,13.499915 C8.28074052,11.1697151 10.1697151,9.28074052 12.499915,9.28074052 C14.8302849,9.28074052 16.7192595,11.1697151 16.7192595,13.499915 C16.7192595,15.8302849 14.8302849,17.7192595 12.499915,17.7192595 M12.499915,7 C8.91011544,7 6,9.91011544 6,13.499915 C6,17.0898846 8.91011544,20 12.499915,20 C16.0898846,20 19,17.0898846 19,13.499915 C19,9.91011544 16.0898846,7 12.499915,7" id="Fill-15"></path>
                    <path d="M21,5.49991608 C21,6.3285035 20.3284284,7 19.4999161,7 C18.6715716,7 18,6.3285035 18,5.49991608 C18,4.6714965 18.6715716,4 19.4999161,4 C20.3284284,4 21,4.6714965 21,5.49991608" id="Fill-17"></path>
                </g>
            </g>
        </g>
    </g>
</svg>