<?xml version="1.0" encoding="UTF-8"?>
<svg width="27px" height="23px" viewBox="0 0 27 23" version="1.1" xmlns="http://www.w3.org/2000/svg" xmlns:xlink="http://www.w3.org/1999/xlink">
    <!-- Generator: sketchtool 49.2 (51160) - http://www.bohemiancoding.com/sketch -->
    <title>651CE87B-1BD4-4FFB-BF27-696A54E35932</title>
    <desc>Created with sketchtool.</desc>
    <defs></defs>
    <g id="Design" stroke="none" stroke-width="1" fill="none" fill-rule="evenodd">
        <g id="Artboard" transform="translate(-169.000000, -1007.000000)" fill="#FEFEFE">
            <g id="Соцсети" transform="translate(50.000000, 1003.000000)">
                <path d="M146,6.72246011 C145.006797,7.1842117 143.938982,7.49670336 142.8185,7.63693272 C143.962065,6.91806558 144.840505,5.78072541 145.254041,4.42443661 C144.183625,5.09014268 142.998284,5.57319278 141.73638,5.8335457 C140.726109,4.70489532 139.286209,4 137.693183,4 C134.633923,4 132.153679,6.59978072 132.153679,9.80631325 C132.153679,10.2615901 132.202771,10.7044286 132.297214,11.129206 C127.69337,10.887255 123.61181,8.57577082 120.87977,5.0628806 C120.402838,5.92027321 120.129748,6.9177248 120.129748,7.98179811 C120.129748,9.99612552 121.107671,11.7736136 122.594061,12.8146845 C121.686037,12.7843554 120.831817,12.5236617 120.085046,12.0883203 C120.084558,12.1126858 120.084558,12.1370512 120.084558,12.1615871 C120.084558,14.9746937 121.993913,17.3214482 124.527962,17.8549331 C124.063221,17.987495 123.57361,18.0585468 123.068718,18.0585468 C122.71175,18.0585468 122.364698,18.0220838 122.026261,17.9546101 C122.731094,20.2609826 124.776994,21.9399864 127.200995,21.9865023 C125.305294,23.5441898 122.916568,24.4724638 120.321561,24.4724638 C119.874214,24.4724638 119.433368,24.4448609 119,24.3908479 C121.451309,26.0388411 124.363295,27 127.491315,27 C137.680016,27 143.25203,18.1520898 143.25203,10.4795164 C143.25203,10.2276829 143.246666,9.97755323 143.235938,9.72844591 C144.31822,8.90956099 145.257455,7.88706236 146,6.72246011" id="Fill-7"></path>
            </g>
        </g>
    </g>
</svg>