<?xml version="1.0" encoding="UTF-8"?>
<svg width="31px" height="18px" viewBox="0 0 31 18" version="1.1" xmlns="http://www.w3.org/2000/svg" xmlns:xlink="http://www.w3.org/1999/xlink">
    <!-- Generator: sketchtool 49.2 (51160) - http://www.bohemiancoding.com/sketch -->
    <title>AAB7CEFF-15A1-4C62-8817-50B80C13E6CC</title>
    <desc>Created with sketchtool.</desc>
    <defs>
        <polygon id="path-1" points="0 0.0966293456 30.9297924 0.0966293456 30.9297924 17.9799447 0 17.9799447"></polygon>
    </defs>
    <g id="Design" stroke="none" stroke-width="1" fill="none" fill-rule="evenodd">
        <g id="Artboard" transform="translate(-50.000000, -1010.000000)">
            <g id="Соцсети" transform="translate(50.000000, 1003.000000)">
                <g id="Group-3" transform="translate(0.000000, 7.000000)">
                    <mask id="mask-2" fill="white">
                        <use xlink:href="#path-1"></use>
                    </mask>
                    <g id="Clip-2"></g>
                    <path d="M15.1331505,17.9050091 L16.981687,17.9050091 C16.981687,17.9050091 17.5400099,17.8426636 17.8254682,17.5312636 C18.0879995,17.2452273 18.0794422,16.7083364 18.0794422,16.7083364 C18.0794422,16.7083364 18.043437,14.1943909 19.1944734,13.8239182 C20.329687,13.4591727 21.7871714,16.2535909 23.3315203,17.3285182 C24.4998328,18.1414636 25.3873693,17.9634273 25.3873693,17.9634273 L29.5179578,17.9050091 C29.5179578,17.9050091 31.6787547,17.7698455 30.6539786,16.0482273 C30.5700203,15.9075 30.0572286,14.7746455 27.5827182,12.4469182 C24.9924422,10.0107 25.3399005,10.4045727 28.4595984,6.19011818 C30.3596401,3.62364545 31.1191401,2.05682727 30.8817964,1.38591818 C30.6557547,0.746590909 29.2580099,0.9153 29.2580099,0.9153 L24.6075255,0.944754545 C24.6075255,0.944754545 24.2624891,0.897136364 24.0069005,1.05193636 C23.756963,1.20379091 23.5966349,1.55773636 23.5966349,1.55773636 C23.5966349,1.55773636 22.860062,3.54362727 21.8788797,5.23284545 C19.8080151,8.79651818 18.9797339,8.98519091 18.6413172,8.76379091 C17.8537234,8.24751818 18.0505411,6.69199091 18.0505411,5.5863 C18.0505411,2.13193636 18.5675307,0.6921 17.0440099,0.319172727 C16.5384839,0.195627273 16.1659995,0.114136364 14.8732026,0.100554545 C13.2135724,0.0835363636 11.8093693,0.105790909 11.0140255,0.500972727 C10.485088,0.763281818 10.0767599,1.34828182 10.3255672,1.38215455 C10.6329839,1.42322727 11.3288693,1.5723 11.6981245,2.08137273 C12.1749109,2.73837273 12.1579578,4.21420909 12.1579578,4.21420909 C12.1579578,4.21420909 12.4319526,8.28008182 11.5184214,8.78506364 C10.8914786,9.13131818 10.031713,8.42424545 8.18543698,5.19062727 C7.2394526,3.53446364 6.5253224,1.7037 6.5253224,1.7037 C6.5253224,1.7037 6.38759844,1.36153636 6.14185885,1.17842727 C5.84396823,0.956536364 5.42756719,0.886172727 5.42756719,0.886172727 L1.00796823,0.9153 C1.00796823,0.9153 0.344697396,0.934118182 0.101056771,1.2267 C-0.115781771,1.48688182 0.0837807292,2.02459091 0.0837807292,2.02459091 C0.0837807292,2.02459091 3.5435099,10.2285 7.4611349,14.3629364 C11.0540672,18.1537364 15.1331505,17.9050091 15.1331505,17.9050091" id="Fill-1" fill="#FEFEFE" mask="url(#mask-2)"></path>
                </g>
            </g>
        </g>
    </g>
</svg>