<?xml version="1.0" encoding="UTF-8"?>
<svg width="26px" height="18px" viewBox="0 0 26 18" version="1.1" xmlns="http://www.w3.org/2000/svg" xmlns:xlink="http://www.w3.org/1999/xlink">
    <!-- Generator: sketchtool 49.2 (51160) - http://www.bohemiancoding.com/sketch -->
    <title>721C8968-A474-43E0-997D-B6E9A2BA4B92</title>
    <desc>Created with sketchtool.</desc>
    <defs></defs>
    <g id="Design" stroke="none" stroke-width="1" fill="none" fill-rule="evenodd">
        <g id="Artboard-Copy-7" transform="translate(-337.000000, -4086.000000)" fill="#FEFEFE">
            <g id="Page-1" transform="translate(50.000000, 4079.000000)">
                <path d="M297.272992,19.5204891 L297.272992,12.3599193 L304.146828,15.9399622 L297.272992,19.5204891 Z M312.549951,9.89509068 C312.23162,8.5217622 311.100409,7.50882557 309.739544,7.35766749 C306.51547,7.00017942 303.252416,6.99856621 300.003817,7.00017942 C296.75473,6.99856621 293.491351,7.00017942 290.267439,7.35766749 C288.90625,7.50882557 287.775525,8.5217622 287.457682,9.89509068 C287.004872,11.8512731 287,13.985877 287,16.0001351 C287,18.0139092 287,20.1488357 287.452322,22.1050181 C287.770166,23.4781853 288.90089,24.4911219 290.262404,24.64228 C293.486154,24.9997681 296.749533,25.0017039 299.998295,24.9997681 C303.247218,25.0017039 306.510272,24.9997681 309.734185,24.6421187 C311.095374,24.4911219 312.226423,23.4781853 312.544592,22.1050181 C312.997239,20.1488357 313,18.0139092 313,16.0001351 C313,13.985877 313.002436,11.8512731 312.549951,9.89509068 Z" id="Fill-19"></path>
            </g>
        </g>
    </g>
</svg>