<svg xmlns="http://www.w3.org/2000/svg" width="75" height="75" viewBox="0 0 75 75">
    <g fill="#FFF" fill-rule="nonzero">
        <path d="M71.975 0h-22.95a3.025 3.025 0 1 0 0 6.05H68.95v19.925a3.025 3.025 0 1 0 6.051 0V3.025A3.025 3.025 0 0 0 71.975 0zM25.975 68.95H6.05V49.024a3.025 3.025 0 1 0-6.051 0v22.95A3.025 3.025 0 0 0 3.025 75h22.95a3.025 3.025 0 1 0 0-6.05z"/>
        <path d="M74.11.89a3.042 3.042 0 0 0-4.302 0L42.89 27.809a3.042 3.042 0 0 0 4.301 4.301L74.11 5.192a3.042 3.042 0 0 0 0-4.301zM32.11 42.89a3.042 3.042 0 0 0-4.302 0L.89 69.809a3.042 3.042 0 1 0 4.301 4.301L32.11 47.192a3.041 3.041 0 0 0 0-4.301z"/>
    </g>
</svg>
