<?xml version="1.0" encoding="UTF-8"?>
<svg width="46px" height="46px" viewBox="0 0 46 46" version="1.1" xmlns="http://www.w3.org/2000/svg" xmlns:xlink="http://www.w3.org/1999/xlink">
    <!-- Generator: sketchtool 49.2 (51160) - http://www.bohemiancoding.com/sketch -->
    <title>BDD25EB5-9F5A-44B5-AB85-CFF754923E84</title>
    <desc>Created with sketchtool.</desc>
    <defs></defs>
    <g id="Design" stroke="none" stroke-width="1" fill="none" fill-rule="evenodd">
        <g id="Artboard-Copy" transform="translate(-1758.000000, -979.000000)">
            <g id="Group-5-Copy-2" transform="translate(1781.000000, 1002.000000) scale(-1, 1) translate(-1781.000000, -1002.000000) translate(1759.000000, 980.000000)">
                <circle id="Oval-2" stroke="#FFFFFF" cx="22" cy="22" r="22"></circle>
                <polygon id="Fill-1" fill="#FFFFFF" transform="translate(23.000000, 22.142857) scale(1, -1) rotate(-270.000000) translate(-23.000000, -22.142857) " points="16.9999324 29.2857143 16.9999324 25.7143585 20.9998648 25.7143585 20.9998648 22.1444583 25.0001352 22.1444583 25.0001352 25.7143585 29.0000676 25.7143585 29.0000676 29.2857143 33 29.2857143 33 25.7143585 33 22.1424205 29.0000676 22.1424205 29.0000676 18.5722291 25.0001352 18.5722291 25.0001352 15 20.9998648 15 20.9998648 18.5722291 16.9999324 18.5722291 16.9999324 22.1424205 13 22.1424205 13 25.7143585 13 29.2857143"></polygon>
            </g>
        </g>
    </g>
</svg>