<?xml version="1.0" encoding="UTF-8"?>
<svg width="54px" height="76px" viewBox="0 0 54 76" version="1.1" xmlns="http://www.w3.org/2000/svg" xmlns:xlink="http://www.w3.org/1999/xlink">
    <!-- Generator: sketchtool 49.2 (51160) - http://www.bohemiancoding.com/sketch -->
    <title>14F1BCE3-CBE8-4474-9A03-85BD14808460</title>
    <desc>Created with sketchtool.</desc>
    <defs></defs>
    <g id="Design" stroke="none" stroke-width="1" fill="none" fill-rule="evenodd" opacity="0.7">
        <g id="Artboard-Copy-7" transform="translate(-1716.000000, -2325.000000)" fill="#FFFFFF">
            <g id="Group-9" transform="translate(958.500000, 2363.000000) scale(-1, 1) translate(-958.500000, -2363.000000) translate(147.000000, 2325.000000)">
                <g id="Group-4">
                    <polygon id="Fill-1" transform="translate(27.000000, 37.800000) scale(-1, -1) rotate(-270.000000) translate(-27.000000, -37.800000) " points="4.31974445 64.8 4.31974445 51.3002751 19.4394889 51.3002751 19.4394889 37.8060522 34.5605111 37.8060522 34.5605111 51.3002751 49.6802556 51.3002751 49.6802556 64.8 64.8 64.8 64.8 51.3002751 64.8 37.7983494 49.6802556 37.7983494 49.6802556 24.3030261 34.5605111 24.3030261 34.5605111 10.8 19.4394889 10.8 19.4394889 24.3030261 4.31974445 24.3030261 4.31974445 37.7983494 -10.8 37.7983494 -10.8 51.3002751 -10.8 64.8"></polygon>
                </g>
            </g>
        </g>
    </g>
</svg>