<?xml version="1.0" encoding="UTF-8"?>
<svg width="14px" height="20px" viewBox="0 0 14 20" version="1.1" xmlns="http://www.w3.org/2000/svg" xmlns:xlink="http://www.w3.org/1999/xlink">
    <!-- Generator: sketchtool 49.2 (51160) - http://www.bohemiancoding.com/sketch -->
    <title>E2071401-70F5-4131-AD83-97B2E35F42AA</title>
    <desc>Created with sketchtool.</desc>
    <defs></defs>
    <g id="Design" stroke="none" stroke-width="1" fill="none" fill-rule="evenodd">
        <g id="Artboard" transform="translate(-51.000000, -574.000000)" fill="#D3D3D3">
            <g id="Пагинатор" transform="translate(48.000000, 497.000000)">
                <g id="Page-1" transform="translate(3.000000, 77.000000)">
                    <g id="Group">
                        <g id="Page-1" transform="translate(7.000000, 15.000000) rotate(-180.000000) translate(-7.000000, -15.000000) translate(0.000000, 10.000000)">
                            <polygon id="Fill-1" points="2.79995268 10 2.79995268 7.50005094 5.59990535 7.50005094 5.59990535 5.00112078 8.40009465 5.00112078 8.40009465 7.50005094 11.2000473 7.50005094 11.2000473 10 14 10 14 7.50005094 14 4.99969433 11.2000473 4.99969433 11.2000473 2.50056039 8.40009465 2.50056039 8.40009465 0 5.59990535 0 5.59990535 2.50056039 2.79995268 2.50056039 2.79995268 4.99969433 0 4.99969433 0 7.50005094 0 10"></polygon>
                        </g>
                        <g id="Page-1-Copy" transform="translate(7.000000, 5.000000) rotate(-180.000000) translate(-7.000000, -5.000000) " opacity="0.625452899">
                            <polygon id="Fill-1" points="2.79995268 10 2.79995268 7.50005094 5.59990535 7.50005094 5.59990535 5.00112078 8.40009465 5.00112078 8.40009465 7.50005094 11.2000473 7.50005094 11.2000473 10 14 10 14 7.50005094 14 4.99969433 11.2000473 4.99969433 11.2000473 2.50056039 8.40009465 2.50056039 8.40009465 0 5.59990535 0 5.59990535 2.50056039 2.79995268 2.50056039 2.79995268 4.99969433 0 4.99969433 0 7.50005094 0 10"></polygon>
                        </g>
                    </g>
                </g>
            </g>
        </g>
    </g>
</svg>