<svg xmlns="http://www.w3.org/2000/svg" width="23" height="25" viewBox="0 0 23 25">
    <path fill="none" fill-rule="evenodd" stroke="#FFF" d="M22 17.736c-1.67-1.484-4.529-2.57-6.744-2.546-.663.496-1.975 1.899-2.446 2.574-1.252-.43-2.617-1.797-3.825-3.266-1.207-1.469-2.286-3.073-2.465-4.384.755-.332 2.383-1.347 2.998-1.903.451-2.168-.062-5.184-1.195-7.108-1.315-.22-4.484-.156-6.774.886-.94 2.793-1.254 9.09 3.985 15.715 5.487 6.419 11.808 6.407 14.73 6.025 1.464-2.046 1.698-4.66 1.736-5.993"/>
</svg>
