<?xml version="1.0" encoding="UTF-8"?>
<svg width="67px" height="73px" viewBox="0 0 67 73" version="1.1" xmlns="http://www.w3.org/2000/svg" xmlns:xlink="http://www.w3.org/1999/xlink">
    <!-- Generator: sketchtool 49.2 (51160) - http://www.bohemiancoding.com/sketch -->
    <title>00AB4B96-E67C-4BEC-9668-31FE04607C6C</title>
    <desc>Created with sketchtool.</desc>
    <defs>
        <polygon id="path-1" points="2.98369781e-05 0.0737474061 66.9004724 0.0737474061 66.9004724 12 2.98369781e-05 12"></polygon>
        <path d="M26.6579703,2.86689924 C26.6187888,2.94543454 26.5374575,2.9968887 26.4513769,2.9968887 C26.3620312,2.9968887 26.2818872,2.94543454 26.2418152,2.86689924 L24.8140648,0.0215744239 L23.1043263,2.23590874 L24.9547621,6.05344639 C24.9871165,6.12114923 24.9859292,6.19968453 24.9541684,6.26528106 L0.0261210056,55.9651859 L20.4453266,55.9651859 L26.2418152,44.4213998 C26.2818872,44.3410591 26.3620312,44.2896049 26.4513769,44.2896049 C26.5374575,44.2896049 26.6187888,44.3410591 26.6579703,44.4213998 L32.4553494,55.9651859 L52.8730709,55.9651859 L27.9471013,6.26528106 C27.9129659,6.19968453 27.9120754,6.12114923 27.9453204,6.05344639 L29.7945688,2.23590874 L28.0851271,0.0215744239 L26.6579703,2.86689924 Z" id="path-3"></path>
    </defs>
    <g id="Design" stroke="none" stroke-width="1" fill="none" fill-rule="evenodd">
        <g id="Artboard" transform="translate(-50.000000, -50.000000)">
            <g id="Лого" transform="translate(50.000000, 50.000000)">
                <g id="Group-3" transform="translate(0.000000, 61.000000)">
                    <mask id="mask-2" fill="white">
                        <use xlink:href="#path-1"></use>
                    </mask>
                    <g id="Clip-2"></g>
                    <path d="M7.69289791,1.68519284 L7.69289791,0.0737474061 L2.98369781e-05,0.0737474061 L2.98369781e-05,1.68519284 L3.01595159,1.68519284 L3.01595159,11.8998333 L4.67697616,11.8998333 L4.67697616,1.68519284 L7.69289791,1.68519284 Z M18.7648038,7.91370805 L18.7648038,0.0737474061 L17.1037792,0.0737474061 L17.1037792,7.83059893 C17.1037792,9.40873846 16.1958399,10.3886168 14.8263226,10.3886168 C13.4568053,10.3886168 12.5643813,9.40873846 12.5643813,7.83059893 L12.5643813,0.0737474061 L10.9030584,0.0737474061 L10.9030584,7.91370805 C10.9030584,10.3553109 12.5957102,12.0000623 14.8263226,12.0000623 C17.0575319,12.0000623 18.7648038,10.3553109 18.7648038,7.91370805 Z M31.1907117,11.8998333 L31.1907117,0.0737474061 L29.5296871,0.0737474061 L29.5296871,8.37905689 L24.4678438,0.0737474061 L22.9443677,0.0737474061 L22.9443677,11.8998333 L24.6062873,11.8998333 L24.6062873,3.57833775 L29.6681307,11.8998333 L31.1907117,11.8998333 Z M43.3251123,5.90414812 C43.3251123,4.19309624 43.4017933,2.46585832 42.2175637,1.18684937 C41.5253458,0.439489803 40.5252103,0.0737474061 39.3863328,0.0737474061 L35.540048,0.0737474061 L35.540048,11.8998333 L39.3863328,11.8998333 C40.5252103,11.8998333 41.5253458,11.5350247 42.2175637,10.7873538 C43.4017933,9.5083449 43.3251123,7.61457746 43.3251123,5.90414812 Z M41.6631926,5.90414812 C41.6631926,7.53177961 41.6479758,8.81109982 41.0789846,9.49215886 C40.6174065,10.039683 40.0018697,10.2890104 39.2165604,10.2890104 L37.2016693,10.2890104 L37.2016693,1.68519284 L39.2165604,1.68519284 C40.0018697,1.68519284 40.6174065,1.93452021 41.0789846,2.48235564 C41.6479758,3.16341467 41.6631926,4.27651664 41.6631926,5.90414812 Z M55.2590084,11.8998333 L52.7350985,6.66800501 C53.9661722,6.30226261 54.9203587,5.22308909 54.9203587,3.5288458 C54.9203587,1.51928587 53.5970888,0.0737474061 51.5198383,0.0737474061 L47.273738,0.0737474061 L47.273738,11.8998333 L48.9356577,11.8998333 L48.9356577,6.91702111 L51.0123113,6.91702111 L53.3202016,11.8998333 L55.2590084,11.8998333 Z M53.2590358,3.54534311 C53.2590358,4.70855957 52.5044586,5.38899606 51.39691,5.38899606 L48.9356577,5.38899606 L48.9356577,1.68519284 L51.39691,1.68519284 C52.5044586,1.68519284 53.2590358,2.38274919 53.2590358,3.54534311 Z M66.9005022,11.8998333 L62.8850417,0.0737474061 L61.5462565,0.0737474061 L57.5301992,11.8998333 L59.2992337,11.8998333 L60.0538108,9.52515349 L64.377189,9.52515349 L65.1311694,11.8998333 L66.9005022,11.8998333 Z M63.9159093,7.99712844 L60.5458226,7.99712844 L62.2539896,2.74849159 L63.9159093,7.99712844 Z" id="Fill-1" fill="#FFFFFF" mask="url(#mask-2)"></path>
                </g>
                <g id="Group-215" transform="translate(7.000000, 0.000000)">
                    <mask id="mask-4" fill="white">
                        <use xlink:href="#path-3"></use>
                    </mask>
                    <g id="Clip-5"></g>
                    <polygon id="Fill-4" fill="#FFFFFF" mask="url(#mask-4)" points="19.7213592 24.852871 22.4127133 24.852871 22.4127133 22.0240957 19.7213592 22.0240957"></polygon>
                    <polygon id="Fill-6" fill="#FFFFFF" mask="url(#mask-4)" points="22.4127133 27.6816462 25.1043642 27.6816462 25.1043642 24.8534728 22.4127133 24.8534728"></polygon>
                    <polygon id="Fill-7" fill="#FFFFFF" mask="url(#mask-4)" points="25.1043642 30.5092178 27.7957182 30.5092178 27.7957182 27.6798408 25.1043642 27.6798408"></polygon>
                    <polygon id="Fill-8" fill="#FFFFFF" mask="url(#mask-4)" points="19.7213592 27.6816462 22.4127133 27.6816462 22.4127133 24.8534728 19.7213592 24.8534728"></polygon>
                    <polygon id="Fill-9" fill="#FFFFFF" mask="url(#mask-4)" points="30.4873691 24.852871 33.1787232 24.852871 33.1787232 22.0240957 30.4873691 22.0240957"></polygon>
                    <polygon id="Fill-10" fill="#FFFFFF" mask="url(#mask-4)" points="30.4873691 27.6816462 33.1787232 27.6816462 33.1787232 24.8534728 30.4873691 24.8534728"></polygon>
                    <polygon id="Fill-11" fill="#FFFFFF" mask="url(#mask-4)" points="22.4127133 30.5092178 25.1043642 30.5092178 25.1043642 27.6798408 22.4127133 27.6798408"></polygon>
                    <polygon id="Fill-12" fill="#FFFFFF" mask="url(#mask-4)" points="27.7957182 27.6816462 30.4873691 27.6816462 30.4873691 24.8534728 27.7957182 24.8534728"></polygon>
                    <polygon id="Fill-13" fill="#FFFFFF" mask="url(#mask-4)" points="27.7957182 30.5092178 30.4873691 30.5092178 30.4873691 27.6798408 27.7957182 27.6798408"></polygon>
                    <polygon id="Fill-14" fill="#FFFFFF" mask="url(#mask-4)" points="25.1043642 33.337993 27.7957182 33.337993 27.7957182 30.5098196 25.1043642 30.5098196"></polygon>
                    <polygon id="Fill-15" fill="#FFFFFF" mask="url(#mask-4)" points="19.7213592 13.5389736 22.4127133 13.5389736 22.4127133 10.7095966 19.7213592 10.7095966"></polygon>
                    <polygon id="Fill-16" fill="#FFFFFF" mask="url(#mask-4)" points="22.4127133 16.3680498 25.1043642 16.3680498 25.1043642 13.5392745 22.4127133 13.5392745"></polygon>
                    <polygon id="Fill-17" fill="#FFFFFF" mask="url(#mask-4)" points="25.1043642 19.1962232 27.7957182 19.1962232 27.7957182 16.3680498 25.1043642 16.3680498"></polygon>
                    <polygon id="Fill-18" fill="#FFFFFF" mask="url(#mask-4)" points="19.7213592 16.3680498 22.4127133 16.3680498 22.4127133 13.5392745 19.7213592 13.5392745"></polygon>
                    <polygon id="Fill-19" fill="#FFFFFF" mask="url(#mask-4)" points="30.4873691 13.5389736 33.1787232 13.5389736 33.1787232 10.7095966 30.4873691 10.7095966"></polygon>
                    <polygon id="Fill-20" fill="#FFFFFF" mask="url(#mask-4)" points="30.4873691 16.3680498 33.1787232 16.3680498 33.1787232 13.5392745 30.4873691 13.5392745"></polygon>
                    <polygon id="Fill-21" fill="#FFFFFF" mask="url(#mask-4)" points="22.4127133 19.1962232 25.1043642 19.1962232 25.1043642 16.3680498 22.4127133 16.3680498"></polygon>
                    <polygon id="Fill-22" fill="#FFFFFF" mask="url(#mask-4)" points="27.7957182 16.3680498 30.4873691 16.3680498 30.4873691 13.5392745 27.7957182 13.5392745"></polygon>
                    <polygon id="Fill-23" fill="#FFFFFF" mask="url(#mask-4)" points="27.7957182 19.1962232 30.4873691 19.1962232 30.4873691 16.3680498 27.7957182 16.3680498"></polygon>
                    <polygon id="Fill-24" fill="#FFFFFF" mask="url(#mask-4)" points="25.1043642 22.0234939 27.7957182 22.0234939 27.7957182 19.1947187 25.1043642 19.1947187"></polygon>
                    <polygon id="Fill-25" fill="#000000" mask="url(#mask-4)" points="19.7213592 2.22597899 22.4127133 2.22597899 22.4127133 -0.60279624 19.7213592 -0.60279624"></polygon>
                    <polygon id="Fill-26" fill="#FFFFFF" mask="url(#mask-4)" points="22.4127133 5.05355062 25.1043642 5.05355062 25.1043642 2.22417359 22.4127133 2.22417359"></polygon>
                    <polygon id="Fill-27" fill="#FFFFFF" mask="url(#mask-4)" points="25.1043642 7.88202496 27.7957182 7.88202496 27.7957182 5.05385152 25.1043642 5.05385152"></polygon>
                    <polygon id="Fill-28" fill="#000000" mask="url(#mask-4)" points="19.7213592 5.05355062 22.4127133 5.05355062 22.4127133 2.22417359 19.7213592 2.22417359"></polygon>
                    <polygon id="Fill-29" fill="#000000" mask="url(#mask-4)" points="30.4873691 2.22597899 33.1787232 2.22597899 33.1787232 -0.60279624 30.4873691 -0.60279624"></polygon>
                    <polygon id="Fill-30" fill="#000000" mask="url(#mask-4)" points="30.4873691 5.05355062 33.1787232 5.05355062 33.1787232 2.22417359 30.4873691 2.22417359"></polygon>
                    <polygon id="Fill-31" fill="#FFFFFF" mask="url(#mask-4)" points="22.4127133 7.88202496 25.1043642 7.88202496 25.1043642 5.05385152 22.4127133 5.05385152"></polygon>
                    <polygon id="Fill-32" fill="#FFFFFF" mask="url(#mask-4)" points="27.7957182 5.05355062 30.4873691 5.05355062 30.4873691 2.22417359 27.7957182 2.22417359"></polygon>
                    <polygon id="Fill-33" fill="#FFFFFF" mask="url(#mask-4)" points="27.7957182 7.88202496 30.4873691 7.88202496 30.4873691 5.05385152 27.7957182 5.05385152"></polygon>
                    <polygon id="Fill-34" fill="#FFFFFF" mask="url(#mask-4)" points="25.1043642 10.7095966 27.7957182 10.7095966 27.7957182 7.88142315 25.1043642 7.88142315"></polygon>
                    <polygon id="Fill-35" fill="#FFFFFF" mask="url(#mask-4)" points="19.7213592 36.1661665 22.4127133 36.1661665 22.4127133 33.3373912 19.7213592 33.3373912"></polygon>
                    <polygon id="Fill-36" fill="#FFFFFF" mask="url(#mask-4)" points="22.4127133 38.9955435 25.1043642 38.9955435 25.1043642 36.1661665 22.4127133 36.1661665"></polygon>
                    <polygon id="Fill-37" fill="#FFFFFF" mask="url(#mask-4)" points="25.1043642 41.8231151 27.7957182 41.8231151 27.7957182 38.9937381 25.1043642 38.9937381"></polygon>
                    <polygon id="Fill-38" fill="#FFFFFF" mask="url(#mask-4)" points="19.7213592 38.9955435 22.4127133 38.9955435 22.4127133 36.1661665 19.7213592 36.1661665"></polygon>
                    <polygon id="Fill-39" fill="#FFFFFF" mask="url(#mask-4)" points="30.4873691 36.1661665 33.1787232 36.1661665 33.1787232 33.3373912 30.4873691 33.3373912"></polygon>
                    <polygon id="Fill-40" fill="#FFFFFF" mask="url(#mask-4)" points="30.4873691 38.9955435 33.1787232 38.9955435 33.1787232 36.1661665 30.4873691 36.1661665"></polygon>
                    <polygon id="Fill-41" fill="#FFFFFF" mask="url(#mask-4)" points="22.4127133 41.8231151 25.1043642 41.8231151 25.1043642 38.9937381 22.4127133 38.9937381"></polygon>
                    <polygon id="Fill-42" fill="#FFFFFF" mask="url(#mask-4)" points="27.7957182 38.9955435 30.4873691 38.9955435 30.4873691 36.1661665 27.7957182 36.1661665"></polygon>
                    <polygon id="Fill-43" fill="#FFFFFF" mask="url(#mask-4)" points="27.7957182 41.8231151 30.4873691 41.8231151 30.4873691 38.9937381 27.7957182 38.9937381"></polygon>
                    <polygon id="Fill-44" fill="#FFFFFF" mask="url(#mask-4)" points="25.1043642 44.6524922 27.7957182 44.6524922 27.7957182 41.8231151 25.1043642 41.8231151"></polygon>
                    <polygon id="Fill-45" fill="#FFFFFF" mask="url(#mask-4)" points="19.7213592 47.4800638 22.4127133 47.4800638 22.4127133 44.6512886 19.7213592 44.6512886"></polygon>
                    <polygon id="Fill-46" fill="#FFFFFF" mask="url(#mask-4)" points="22.4127133 50.3082372 25.1043642 50.3082372 25.1043642 47.4800638 22.4127133 47.4800638"></polygon>
                    <polygon id="Fill-47" fill="#000000" mask="url(#mask-4)" points="25.1043642 53.1364107 27.7957182 53.1364107 27.7957182 50.3082372 25.1043642 50.3082372"></polygon>
                    <polygon id="Fill-48" fill="#FFFFFF" mask="url(#mask-4)" points="19.7213592 50.3082372 22.4127133 50.3082372 22.4127133 47.4800638 19.7213592 47.4800638"></polygon>
                    <polygon id="Fill-49" fill="#FFFFFF" mask="url(#mask-4)" points="30.1572946 47.4800638 33.1787232 47.4800638 33.1787232 44.3052518 30.1572946 44.3052518"></polygon>
                    <polygon id="Fill-50" fill="#FFFFFF" mask="url(#mask-4)" points="30.1572946 50.6539731 33.1787232 50.6539731 33.1787232 47.4791611 30.1572946 47.4791611"></polygon>
                    <polygon id="Fill-51" fill="#FFFFFF" mask="url(#mask-4)" points="22.4127133 53.1364107 25.1043642 53.1364107 25.1043642 50.3082372 22.4127133 50.3082372"></polygon>
                    <polygon id="Fill-52" fill="#FFFFFF" mask="url(#mask-4)" points="27.7957182 50.3082372 30.4873691 50.3082372 30.4873691 47.4800638 27.7957182 47.4800638"></polygon>
                    <polygon id="Fill-53" fill="#FFFFFF" mask="url(#mask-4)" points="27.7957182 53.1364107 30.4873691 53.1364107 30.4873691 50.3082372 27.7957182 50.3082372"></polygon>
                    <polygon id="Fill-54" fill="#000000" mask="url(#mask-4)" points="25.1043642 55.9651859 27.7957182 55.9651859 27.7957182 53.1364107 25.1043642 53.1364107"></polygon>
                    <polygon id="Fill-55" fill="#000000" mask="url(#mask-4)" points="43.9450299 33.3373912 46.6360872 33.3373912 46.6360872 30.5092178 43.9450299 30.5092178"></polygon>
                    <polygon id="Fill-56" fill="#000000" mask="url(#mask-4)" points="41.2530822 30.5104214 43.9441395 30.5104214 43.9441395 27.6816462 41.2530822 27.6816462"></polygon>
                    <polygon id="Fill-57" fill="#000000" mask="url(#mask-4)" points="38.5617282 27.6810444 41.2527854 27.6810444 41.2527854 24.852871 38.5617282 24.852871"></polygon>
                    <polygon id="Fill-58" fill="#000000" mask="url(#mask-4)" points="43.9450299 30.5104214 46.6360872 30.5104214 46.6360872 27.6816462 43.9450299 27.6816462"></polygon>
                    <polygon id="Fill-59" fill="#FFFFFF" mask="url(#mask-4)" points="33.1787232 33.3373912 35.8697804 33.3373912 35.8697804 30.5092178 33.1787232 30.5092178"></polygon>
                    <polygon id="Fill-60" fill="#FFFFFF" mask="url(#mask-4)" points="33.1787232 30.5104214 35.8697804 30.5104214 35.8697804 27.6816462 33.1787232 27.6816462"></polygon>
                    <polygon id="Fill-61" fill="#000000" mask="url(#mask-4)" points="41.2530822 27.6810444 43.9441395 27.6810444 43.9441395 24.852871 41.2530822 24.852871"></polygon>
                    <polygon id="Fill-62" fill="#FFFFFF" mask="url(#mask-4)" points="35.8700773 30.5104214 38.562025 30.5104214 38.562025 27.6816462 35.8700773 27.6816462"></polygon>
                    <polygon id="Fill-63" fill="#FFFFFF" mask="url(#mask-4)" points="35.8700773 27.6810444 38.562025 27.6810444 38.562025 24.852871 35.8700773 24.852871"></polygon>
                    <polygon id="Fill-64" fill="#000000" mask="url(#mask-4)" points="38.5617282 24.8516673 41.2527854 24.8516673 41.2527854 22.0234939 38.5617282 22.0234939"></polygon>
                    <polygon id="Fill-65" fill="#FFFFFF" mask="url(#mask-4)" points="43.9450299 44.6524922 46.6360872 44.6524922 46.6360872 41.8231151 43.9450299 41.8231151"></polygon>
                    <polygon id="Fill-66" fill="#FFFFFF" mask="url(#mask-4)" points="41.2530822 41.8243188 43.9441395 41.8243188 43.9441395 38.9955435 41.2530822 38.9955435"></polygon>
                    <polygon id="Fill-67" fill="#FFFFFF" mask="url(#mask-4)" points="38.5617282 38.9955435 41.2527854 38.9955435 41.2527854 36.1661665 38.5617282 36.1661665"></polygon>
                    <polygon id="Fill-68" fill="#FFFFFF" mask="url(#mask-4)" points="43.9331568 41.8348503 46.6251045 41.8348503 46.6251045 39.0060751 43.9331568 39.0060751"></polygon>
                    <polygon id="Fill-69" fill="#FFFFFF" mask="url(#mask-4)" points="33.1787232 44.6524922 35.8697804 44.6524922 35.8697804 41.8231151 33.1787232 41.8231151"></polygon>
                    <polygon id="Fill-70" fill="#FFFFFF" mask="url(#mask-4)" points="33.1787232 41.8243188 35.8697804 41.8243188 35.8697804 38.9955435 33.1787232 38.9955435"></polygon>
                    <polygon id="Fill-71" fill="#FFFFFF" mask="url(#mask-4)" points="41.2530822 38.9955435 43.9441395 38.9955435 43.9441395 36.1661665 41.2530822 36.1661665"></polygon>
                    <polygon id="Fill-72" fill="#FFFFFF" mask="url(#mask-4)" points="35.8700773 41.8243188 38.562025 41.8243188 38.562025 38.9955435 35.8700773 38.9955435"></polygon>
                    <polygon id="Fill-73" fill="#FFFFFF" mask="url(#mask-4)" points="35.8700773 38.9955435 38.562025 38.9955435 38.562025 36.1661665 35.8700773 36.1661665"></polygon>
                    <polygon id="Fill-74" fill="#FFFFFF" mask="url(#mask-4)" points="38.5617282 36.1667683 41.2527854 36.1667683 41.2527854 33.337993 38.5617282 33.337993"></polygon>
                    <polygon id="Fill-75" fill="#FFFFFF" mask="url(#mask-4)" points="43.9450299 55.9651859 46.6360872 55.9651859 46.6360872 53.1364107 43.9450299 53.1364107"></polygon>
                    <polygon id="Fill-76" fill="#FFFFFF" mask="url(#mask-4)" points="41.2530822 53.1364107 43.9441395 53.1364107 43.9441395 50.3082372 41.2530822 50.3082372"></polygon>
                    <polygon id="Fill-77" fill="#FFFFFF" mask="url(#mask-4)" points="38.5617282 50.308839 41.2527854 50.308839 41.2527854 47.4800638 38.5617282 47.4800638"></polygon>
                    <polygon id="Fill-78" fill="#FFFFFF" mask="url(#mask-4)" points="43.9450299 53.1364107 46.6360872 53.1364107 46.6360872 50.3082372 43.9450299 50.3082372"></polygon>
                    <polygon id="Fill-79" fill="#FFFFFF" mask="url(#mask-4)" points="33.1787232 55.9651859 35.8697804 55.9651859 35.8697804 53.1364107 33.1787232 53.1364107"></polygon>
                    <polygon id="Fill-80" fill="#FFFFFF" mask="url(#mask-4)" points="33.1787232 53.1364107 35.8697804 53.1364107 35.8697804 50.3082372 33.1787232 50.3082372"></polygon>
                    <polygon id="Fill-81" fill="#FFFFFF" mask="url(#mask-4)" points="41.2530822 50.308839 43.9441395 50.308839 43.9441395 47.4800638 41.2530822 47.4800638"></polygon>
                    <polygon id="Fill-82" fill="#FFFFFF" mask="url(#mask-4)" points="35.8700773 53.1364107 38.562025 53.1364107 38.562025 50.3082372 35.8700773 50.3082372"></polygon>
                    <polygon id="Fill-83" fill="#FFFFFF" mask="url(#mask-4)" points="35.8700773 50.308839 38.562025 50.308839 38.562025 47.4800638 35.8700773 47.4800638"></polygon>
                    <polygon id="Fill-84" fill="#FFFFFF" mask="url(#mask-4)" points="38.5617282 47.4800638 41.2527854 47.4800638 41.2527854 44.6524922 38.5617282 44.6524922"></polygon>
                    <polygon id="Fill-85" fill="#000000" mask="url(#mask-4)" points="43.9450299 22.0243966 46.6360872 22.0243966 46.6360872 19.1962232 43.9450299 19.1962232"></polygon>
                    <polygon id="Fill-86" fill="#000000" mask="url(#mask-4)" points="41.2530822 19.1962232 43.9441395 19.1962232 43.9441395 16.3680498 41.2530822 16.3680498"></polygon>
                    <polygon id="Fill-87" fill="#000000" mask="url(#mask-4)" points="38.5617282 16.3677489 41.2527854 16.3677489 41.2527854 13.5389736 38.5617282 13.5389736"></polygon>
                    <polygon id="Fill-88" fill="#000000" mask="url(#mask-4)" points="43.9450299 19.1962232 46.6360872 19.1962232 46.6360872 16.3680498 43.9450299 16.3680498"></polygon>
                    <polygon id="Fill-89" fill="#FFFFFF" mask="url(#mask-4)" points="33.1787232 22.0243966 35.8697804 22.0243966 35.8697804 19.1962232 33.1787232 19.1962232"></polygon>
                    <polygon id="Fill-90" fill="#FFFFFF" mask="url(#mask-4)" points="33.1787232 19.1962232 35.8697804 19.1962232 35.8697804 16.3680498 33.1787232 16.3680498"></polygon>
                    <polygon id="Fill-91" fill="#000000" mask="url(#mask-4)" points="41.2530822 16.3677489 43.9441395 16.3677489 43.9441395 13.5389736 41.2530822 13.5389736"></polygon>
                    <polygon id="Fill-92" fill="#000000" mask="url(#mask-4)" points="35.8700773 19.1962232 38.562025 19.1962232 38.562025 16.3680498 35.8700773 16.3680498"></polygon>
                    <polygon id="Fill-93" fill="#000000" mask="url(#mask-4)" points="35.8700773 16.3677489 38.562025 16.3677489 38.562025 13.5389736 35.8700773 13.5389736"></polygon>
                    <polygon id="Fill-94" fill="#000000" mask="url(#mask-4)" points="38.5617282 13.5389736 41.2527854 13.5389736 41.2527854 10.7095966 38.5617282 10.7095966"></polygon>
                    <polygon id="Fill-95" fill="#000000" mask="url(#mask-4)" points="43.9450299 10.7108002 46.6360872 10.7108002 46.6360872 7.88202496 43.9450299 7.88202496"></polygon>
                    <polygon id="Fill-96" fill="#000000" mask="url(#mask-4)" points="41.2530822 7.88232586 43.9441395 7.88232586 43.9441395 5.05355062 41.2530822 5.05355062"></polygon>
                    <polygon id="Fill-97" fill="#000000" mask="url(#mask-4)" points="38.5617282 5.05475423 41.2527854 5.05475423 41.2527854 2.22597899 38.5617282 2.22597899"></polygon>
                    <polygon id="Fill-98" fill="#000000" mask="url(#mask-4)" points="43.9450299 7.88232586 46.6360872 7.88232586 46.6360872 5.05355062 43.9450299 5.05355062"></polygon>
                    <polygon id="Fill-99" fill="#000000" mask="url(#mask-4)" points="33.1787232 10.7108002 35.8697804 10.7108002 35.8697804 7.88202496 33.1787232 7.88202496"></polygon>
                    <polygon id="Fill-100" fill="#000000" mask="url(#mask-4)" points="33.1787232 7.88232586 35.8697804 7.88232586 35.8697804 5.05355062 33.1787232 5.05355062"></polygon>
                    <polygon id="Fill-101" fill="#000000" mask="url(#mask-4)" points="41.2530822 5.05475423 43.9441395 5.05475423 43.9441395 2.22597899 41.2530822 2.22597899"></polygon>
                    <polygon id="Fill-102" fill="#000000" mask="url(#mask-4)" points="35.8700773 7.88232586 38.562025 7.88232586 38.562025 5.05355062 35.8700773 5.05355062"></polygon>
                    <polygon id="Fill-103" fill="#000000" mask="url(#mask-4)" points="35.8700773 5.05475423 38.562025 5.05475423 38.562025 2.22597899 35.8700773 2.22597899"></polygon>
                    <polygon id="Fill-104" fill="#000000" mask="url(#mask-4)" points="38.5617282 2.22477539 41.2527854 2.22477539 41.2527854 -0.603398043 38.5617282 -0.603398043"></polygon>
                    <polygon id="Fill-105" fill="#000000" mask="url(#mask-4)" points="46.636384 24.852871 49.3268476 24.852871 49.3268476 22.0240957 46.636384 22.0240957"></polygon>
                    <polygon id="Fill-106" fill="#000000" mask="url(#mask-4)" points="49.3280349 27.6816462 52.0205763 27.6816462 52.0205763 24.8534728 49.3280349 24.8534728"></polygon>
                    <polygon id="Fill-107" fill="#000000" mask="url(#mask-4)" points="52.0199826 30.5092178 54.7104462 30.5092178 54.7104462 27.6798408 52.0199826 27.6798408"></polygon>
                    <polygon id="Fill-108" fill="#000000" mask="url(#mask-4)" points="46.636384 27.6816462 49.3268476 27.6816462 49.3268476 24.8534728 46.636384 24.8534728"></polygon>
                    <polygon id="Fill-109" fill="#000000" mask="url(#mask-4)" points="49.3280349 30.5092178 52.0205763 30.5092178 52.0205763 27.6798408 49.3280349 27.6798408"></polygon>
                    <polygon id="Fill-110" fill="#000000" mask="url(#mask-4)" points="52.0199826 33.337993 54.7104462 33.337993 54.7104462 30.5098196 52.0199826 30.5098196"></polygon>
                    <polygon id="Fill-111" fill="#000000" mask="url(#mask-4)" points="46.636384 13.5389736 49.3268476 13.5389736 49.3268476 10.7095966 46.636384 10.7095966"></polygon>
                    <polygon id="Fill-112" fill="#000000" mask="url(#mask-4)" points="49.3280349 16.3680498 52.0205763 16.3680498 52.0205763 13.5392745 49.3280349 13.5392745"></polygon>
                    <polygon id="Fill-113" fill="#000000" mask="url(#mask-4)" points="52.0199826 19.1962232 54.7104462 19.1962232 54.7104462 16.3680498 52.0199826 16.3680498"></polygon>
                    <polygon id="Fill-114" fill="#000000" mask="url(#mask-4)" points="46.636384 16.3680498 49.3268476 16.3680498 49.3268476 13.5392745 46.636384 13.5392745"></polygon>
                    <polygon id="Fill-115" fill="#000000" mask="url(#mask-4)" points="49.3280349 19.1962232 52.0205763 19.1962232 52.0205763 16.3680498 49.3280349 16.3680498"></polygon>
                    <polygon id="Fill-116" fill="#000000" mask="url(#mask-4)" points="52.0199826 22.0234939 54.7104462 22.0234939 54.7104462 19.1947187 52.0199826 19.1947187"></polygon>
                    <polygon id="Fill-117" fill="#000000" mask="url(#mask-4)" points="46.636384 2.22597899 49.3268476 2.22597899 49.3268476 -0.60279624 46.636384 -0.60279624"></polygon>
                    <polygon id="Fill-118" fill="#000000" mask="url(#mask-4)" points="49.3280349 5.05355062 52.0205763 5.05355062 52.0205763 2.22417359 49.3280349 2.22417359"></polygon>
                    <polygon id="Fill-119" fill="#000000" mask="url(#mask-4)" points="52.0199826 7.88202496 54.7104462 7.88202496 54.7104462 5.05385152 52.0199826 5.05385152"></polygon>
                    <polygon id="Fill-120" fill="#000000" mask="url(#mask-4)" points="46.636384 5.05355062 49.3268476 5.05355062 49.3268476 2.22417359 46.636384 2.22417359"></polygon>
                    <polygon id="Fill-121" fill="#000000" mask="url(#mask-4)" points="49.3280349 7.88202496 52.0205763 7.88202496 52.0205763 5.05385152 49.3280349 5.05385152"></polygon>
                    <polygon id="Fill-122" fill="#000000" mask="url(#mask-4)" points="52.0199826 10.7095966 54.7104462 10.7095966 54.7104462 7.88142315 52.0199826 7.88142315"></polygon>
                    <polygon id="Fill-123" fill="#000000" mask="url(#mask-4)" points="46.636384 36.1661665 49.3268476 36.1661665 49.3268476 33.3373912 46.636384 33.3373912"></polygon>
                    <polygon id="Fill-124" fill="#000000" mask="url(#mask-4)" points="49.3280349 38.9955435 52.0205763 38.9955435 52.0205763 36.1661665 49.3280349 36.1661665"></polygon>
                    <polygon id="Fill-125" fill="#000000" mask="url(#mask-4)" points="52.0199826 41.8231151 54.7104462 41.8231151 54.7104462 38.9937381 52.0199826 38.9937381"></polygon>
                    <polygon id="Fill-126" fill="#000000" mask="url(#mask-4)" points="46.636384 38.9955435 49.3268476 38.9955435 49.3268476 36.1661665 46.636384 36.1661665"></polygon>
                    <polygon id="Fill-127" fill="#000000" mask="url(#mask-4)" points="49.3280349 41.8231151 52.0205763 41.8231151 52.0205763 38.9937381 49.3280349 38.9937381"></polygon>
                    <polygon id="Fill-128" fill="#000000" mask="url(#mask-4)" points="52.0199826 44.6524922 54.7104462 44.6524922 54.7104462 41.8231151 52.0199826 41.8231151"></polygon>
                    <polygon id="Fill-129" fill="#FFFFFF" mask="url(#mask-4)" points="46.636384 47.4800638 49.3268476 47.4800638 49.3268476 44.6512886 46.636384 44.6512886"></polygon>
                    <polygon id="Fill-130" fill="#FFFFFF" mask="url(#mask-4)" points="49.3280349 50.3082372 52.0205763 50.3082372 52.0205763 47.4800638 49.3280349 47.4800638"></polygon>
                    <polygon id="Fill-131" fill="#000000" mask="url(#mask-4)" points="52.0199826 53.1364107 54.7104462 53.1364107 54.7104462 50.3082372 52.0199826 50.3082372"></polygon>
                    <polygon id="Fill-132" fill="#FFFFFF" mask="url(#mask-4)" points="46.636384 50.3082372 49.3268476 50.3082372 49.3268476 47.4800638 46.636384 47.4800638"></polygon>
                    <polygon id="Fill-133" fill="#FFFFFF" mask="url(#mask-4)" points="49.3280349 53.1364107 52.0205763 53.1364107 52.0205763 50.3082372 49.3280349 50.3082372"></polygon>
                    <polygon id="Fill-134" fill="#FFFFFF" mask="url(#mask-4)" points="52.0199826 55.9651859 54.7104462 55.9651859 54.7104462 53.1364107 52.0199826 53.1364107"></polygon>
                    <polygon id="Fill-135" fill="#FFFFFF" mask="url(#mask-4)" points="17.0288178 33.3373912 19.7198751 33.3373912 19.7198751 30.5092178 17.0288178 30.5092178"></polygon>
                    <polygon id="Fill-136" fill="#FFFFFF" mask="url(#mask-4)" points="14.3383543 30.5104214 17.0294115 30.5104214 17.0294115 27.6816462 14.3383543 27.6816462"></polygon>
                    <polygon id="Fill-137" fill="#000000" mask="url(#mask-4)" points="11.6464065 27.6810444 14.3383543 27.6810444 14.3383543 24.852871 11.6464065 24.852871"></polygon>
                    <polygon id="Fill-138" fill="#FFFFFF" mask="url(#mask-4)" points="17.0288178 30.5104214 19.7198751 30.5104214 19.7198751 27.6816462 17.0288178 27.6816462"></polygon>
                    <polygon id="Fill-139" fill="#000000" mask="url(#mask-4)" points="6.26251109 33.3373912 8.95356832 33.3373912 8.95356832 30.5092178 6.26251109 30.5092178"></polygon>
                    <polygon id="Fill-140" fill="#000000" mask="url(#mask-4)" points="6.26251109 30.5104214 8.95356832 30.5104214 8.95356832 27.6816462 6.26251109 27.6816462"></polygon>
                    <polygon id="Fill-141" fill="#FFFFFF" mask="url(#mask-4)" points="14.3383543 27.6810444 17.0294115 27.6810444 17.0294115 24.852871 14.3383543 24.852871"></polygon>
                    <polygon id="Fill-142" fill="#000000" mask="url(#mask-4)" points="8.95445881 30.5104214 11.6470002 30.5104214 11.6470002 27.6816462 8.95445881 27.6816462"></polygon>
                    <polygon id="Fill-143" fill="#000000" mask="url(#mask-4)" points="8.95445881 27.6810444 11.6470002 27.6810444 11.6470002 24.852871 8.95445881 24.852871"></polygon>
                    <polygon id="Fill-144" fill="#000000" mask="url(#mask-4)" points="11.6464065 24.8516673 14.3383543 24.8516673 14.3383543 22.0234939 11.6464065 22.0234939"></polygon>
                    <polygon id="Fill-145" fill="#FFFFFF" mask="url(#mask-4)" points="17.0288178 44.6524922 19.7198751 44.6524922 19.7198751 41.8231151 17.0288178 41.8231151"></polygon>
                    <polygon id="Fill-146" fill="#FFFFFF" mask="url(#mask-4)" points="14.3383543 41.8243188 17.0294115 41.8243188 17.0294115 38.9955435 14.3383543 38.9955435"></polygon>
                    <polygon id="Fill-147" fill="#FFFFFF" mask="url(#mask-4)" points="11.6464065 38.9955435 14.3383543 38.9955435 14.3383543 36.1661665 11.6464065 36.1661665"></polygon>
                    <polygon id="Fill-148" fill="#FFFFFF" mask="url(#mask-4)" points="17.0288178 41.8243188 19.7198751 41.8243188 19.7198751 38.9955435 17.0288178 38.9955435"></polygon>
                    <polygon id="Fill-149" fill="#FFFFFF" mask="url(#mask-4)" points="6.26251109 44.6524922 8.95356832 44.6524922 8.95356832 41.8231151 6.26251109 41.8231151"></polygon>
                    <polygon id="Fill-150" fill="#FFFFFF" mask="url(#mask-4)" points="6.26251109 41.8243188 8.95356832 41.8243188 8.95356832 38.9955435 6.26251109 38.9955435"></polygon>
                    <polygon id="Fill-151" fill="#FFFFFF" mask="url(#mask-4)" points="14.3383543 38.9955435 17.0294115 38.9955435 17.0294115 36.1661665 14.3383543 36.1661665"></polygon>
                    <polygon id="Fill-152" fill="#FFFFFF" mask="url(#mask-4)" points="8.95445881 41.8243188 11.6470002 41.8243188 11.6470002 38.9955435 8.95445881 38.9955435"></polygon>
                    <polygon id="Fill-153" fill="#FFFFFF" mask="url(#mask-4)" points="8.95445881 38.9955435 11.6470002 38.9955435 11.6470002 36.1661665 8.95445881 36.1661665"></polygon>
                    <polygon id="Fill-154" fill="#FFFFFF" mask="url(#mask-4)" points="11.6464065 36.1667683 14.3383543 36.1667683 14.3383543 33.337993 11.6464065 33.337993"></polygon>
                    <polygon id="Fill-155" fill="#FFFFFF" mask="url(#mask-4)" points="17.0288178 55.9651859 19.7198751 55.9651859 19.7198751 53.1364107 17.0288178 53.1364107"></polygon>
                    <polygon id="Fill-156" fill="#FFFFFF" mask="url(#mask-4)" points="14.3383543 53.1364107 17.0294115 53.1364107 17.0294115 50.3082372 14.3383543 50.3082372"></polygon>
                    <polygon id="Fill-157" fill="#FFFFFF" mask="url(#mask-4)" points="11.6464065 50.308839 14.3383543 50.308839 14.3383543 47.4800638 11.6464065 47.4800638"></polygon>
                    <polygon id="Fill-158" fill="#FFFFFF" mask="url(#mask-4)" points="17.0288178 53.1364107 19.7198751 53.1364107 19.7198751 50.3082372 17.0288178 50.3082372"></polygon>
                    <polygon id="Fill-159" fill="#FFFFFF" mask="url(#mask-4)" points="6.26251109 55.9651859 8.95356832 55.9651859 8.95356832 53.1364107 6.26251109 53.1364107"></polygon>
                    <polygon id="Fill-160" fill="#FFFFFF" mask="url(#mask-4)" points="6.26251109 53.1364107 8.95356832 53.1364107 8.95356832 50.3082372 6.26251109 50.3082372"></polygon>
                    <polygon id="Fill-161" fill="#FFFFFF" mask="url(#mask-4)" points="14.3383543 50.308839 17.0294115 50.308839 17.0294115 47.4800638 14.3383543 47.4800638"></polygon>
                    <polygon id="Fill-162" fill="#FFFFFF" mask="url(#mask-4)" points="8.95445881 53.1364107 11.6470002 53.1364107 11.6470002 50.3082372 8.95445881 50.3082372"></polygon>
                    <polygon id="Fill-163" fill="#FFFFFF" mask="url(#mask-4)" points="8.95445881 50.308839 11.6470002 50.308839 11.6470002 47.4800638 8.95445881 47.4800638"></polygon>
                    <polygon id="Fill-164" fill="#FFFFFF" mask="url(#mask-4)" points="11.6464065 47.4800638 14.3383543 47.4800638 14.3383543 44.6524922 11.6464065 44.6524922"></polygon>
                    <polygon id="Fill-165" fill="#FFFFFF" mask="url(#mask-4)" points="17.0288178 22.0243966 19.7198751 22.0243966 19.7198751 19.1962232 17.0288178 19.1962232"></polygon>
                    <polygon id="Fill-166" fill="#000000" mask="url(#mask-4)" points="14.3383543 19.1962232 17.0294115 19.1962232 17.0294115 16.3680498 14.3383543 16.3680498"></polygon>
                    <polygon id="Fill-167" fill="#000000" mask="url(#mask-4)" points="11.6464065 16.3677489 14.3383543 16.3677489 14.3383543 13.5389736 11.6464065 13.5389736"></polygon>
                    <polygon id="Fill-168" fill="#FFFFFF" mask="url(#mask-4)" points="17.0288178 19.1962232 19.7198751 19.1962232 19.7198751 16.3680498 17.0288178 16.3680498"></polygon>
                    <polygon id="Fill-169" fill="#000000" mask="url(#mask-4)" points="6.26251109 22.0243966 8.95356832 22.0243966 8.95356832 19.1962232 6.26251109 19.1962232"></polygon>
                    <polygon id="Fill-170" fill="#000000" mask="url(#mask-4)" points="6.26251109 19.1962232 8.95356832 19.1962232 8.95356832 16.3680498 6.26251109 16.3680498"></polygon>
                    <polygon id="Fill-171" fill="#000000" mask="url(#mask-4)" points="14.3383543 16.3677489 17.0294115 16.3677489 17.0294115 13.5389736 14.3383543 13.5389736"></polygon>
                    <polygon id="Fill-172" fill="#000000" mask="url(#mask-4)" points="8.95445881 19.1962232 11.6470002 19.1962232 11.6470002 16.3680498 8.95445881 16.3680498"></polygon>
                    <polygon id="Fill-173" fill="#000000" mask="url(#mask-4)" points="8.95445881 16.3677489 11.6470002 16.3677489 11.6470002 13.5389736 8.95445881 13.5389736"></polygon>
                    <polygon id="Fill-174" fill="#000000" mask="url(#mask-4)" points="11.6464065 13.5389736 14.3383543 13.5389736 14.3383543 10.7095966 11.6464065 10.7095966"></polygon>
                    <polygon id="Fill-175" fill="#000000" mask="url(#mask-4)" points="17.0288178 10.7108002 19.7198751 10.7108002 19.7198751 7.88202496 17.0288178 7.88202496"></polygon>
                    <polygon id="Fill-176" fill="#000000" mask="url(#mask-4)" points="14.3383543 7.88232586 17.0294115 7.88232586 17.0294115 5.05355062 14.3383543 5.05355062"></polygon>
                    <polygon id="Fill-177" fill="#000000" mask="url(#mask-4)" points="11.6464065 5.05475423 14.3383543 5.05475423 14.3383543 2.22597899 11.6464065 2.22597899"></polygon>
                    <polygon id="Fill-178" fill="#000000" mask="url(#mask-4)" points="17.0288178 7.88232586 19.7198751 7.88232586 19.7198751 5.05355062 17.0288178 5.05355062"></polygon>
                    <polygon id="Fill-179" fill="#000000" mask="url(#mask-4)" points="6.26251109 10.7108002 8.95356832 10.7108002 8.95356832 7.88202496 6.26251109 7.88202496"></polygon>
                    <polygon id="Fill-180" fill="#000000" mask="url(#mask-4)" points="6.26251109 7.88232586 8.95356832 7.88232586 8.95356832 5.05355062 6.26251109 5.05355062"></polygon>
                    <polygon id="Fill-181" fill="#000000" mask="url(#mask-4)" points="14.3383543 5.05475423 17.0294115 5.05475423 17.0294115 2.22597899 14.3383543 2.22597899"></polygon>
                    <polygon id="Fill-182" fill="#000000" mask="url(#mask-4)" points="8.95445881 7.88232586 11.6470002 7.88232586 11.6470002 5.05355062 8.95445881 5.05355062"></polygon>
                    <polygon id="Fill-183" fill="#000000" mask="url(#mask-4)" points="8.95445881 5.05475423 11.6470002 5.05475423 11.6470002 2.22597899 8.95445881 2.22597899"></polygon>
                    <polygon id="Fill-184" fill="#000000" mask="url(#mask-4)" points="11.6464065 2.22477539 14.3383543 2.22477539 14.3383543 -0.603398043 11.6464065 -0.603398043"></polygon>
                    <polygon id="Fill-185" fill="#000000" mask="url(#mask-4)" points="-1.81184793 30.5092178 0.879506131 30.5092178 0.879506131 27.6798408 -1.81184793 27.6798408"></polygon>
                    <polygon id="Fill-186" fill="#000000" mask="url(#mask-4)" points="3.57204751 24.852871 6.26251109 24.852871 6.26251109 22.0240957 3.57204751 22.0240957"></polygon>
                    <polygon id="Fill-187" fill="#000000" mask="url(#mask-4)" points="3.57204751 27.6816462 6.26251109 27.6816462 6.26251109 24.8534728 3.57204751 24.8534728"></polygon>
                    <polygon id="Fill-188" fill="#000000" mask="url(#mask-4)" points="0.879506131 27.6816462 3.57204751 27.6816462 3.57204751 24.8534728 0.879506131 24.8534728"></polygon>
                    <polygon id="Fill-189" fill="#000000" mask="url(#mask-4)" points="0.879506131 30.5092178 3.57204751 30.5092178 3.57204751 27.6798408 0.879506131 27.6798408"></polygon>
                    <polygon id="Fill-190" fill="#000000" mask="url(#mask-4)" points="-1.81184793 33.337993 0.879506131 33.337993 0.879506131 30.5098196 -1.81184793 30.5098196"></polygon>
                    <polygon id="Fill-191" fill="#000000" mask="url(#mask-4)" points="-1.81184793 19.1962232 0.879506131 19.1962232 0.879506131 16.3680498 -1.81184793 16.3680498"></polygon>
                    <polygon id="Fill-192" fill="#000000" mask="url(#mask-4)" points="3.57204751 13.5389736 6.26251109 13.5389736 6.26251109 10.7095966 3.57204751 10.7095966"></polygon>
                    <polygon id="Fill-193" fill="#000000" mask="url(#mask-4)" points="3.57204751 16.3680498 6.26251109 16.3680498 6.26251109 13.5392745 3.57204751 13.5392745"></polygon>
                    <polygon id="Fill-194" fill="#000000" mask="url(#mask-4)" points="0.879506131 16.3680498 3.57204751 16.3680498 3.57204751 13.5392745 0.879506131 13.5392745"></polygon>
                    <polygon id="Fill-195" fill="#000000" mask="url(#mask-4)" points="0.879506131 19.1962232 3.57204751 19.1962232 3.57204751 16.3680498 0.879506131 16.3680498"></polygon>
                    <polygon id="Fill-196" fill="#000000" mask="url(#mask-4)" points="-1.81184793 22.0234939 0.879506131 22.0234939 0.879506131 19.1947187 -1.81184793 19.1947187"></polygon>
                    <polygon id="Fill-197" fill="#000000" mask="url(#mask-4)" points="-1.81184793 7.88202496 0.879506131 7.88202496 0.879506131 5.05385152 -1.81184793 5.05385152"></polygon>
                    <polygon id="Fill-198" fill="#000000" mask="url(#mask-4)" points="3.57204751 2.22597899 6.26251109 2.22597899 6.26251109 -0.60279624 3.57204751 -0.60279624"></polygon>
                    <polygon id="Fill-199" fill="#000000" mask="url(#mask-4)" points="3.57204751 5.05355062 6.26251109 5.05355062 6.26251109 2.22417359 3.57204751 2.22417359"></polygon>
                    <polygon id="Fill-200" fill="#000000" mask="url(#mask-4)" points="0.879506131 5.05355062 3.57204751 5.05355062 3.57204751 2.22417359 0.879506131 2.22417359"></polygon>
                    <polygon id="Fill-201" fill="#000000" mask="url(#mask-4)" points="0.879506131 7.88202496 3.57204751 7.88202496 3.57204751 5.05385152 0.879506131 5.05385152"></polygon>
                    <polygon id="Fill-202" fill="#000000" mask="url(#mask-4)" points="-1.81184793 10.7095966 0.879506131 10.7095966 0.879506131 7.88142315 -1.81184793 7.88142315"></polygon>
                    <polygon id="Fill-203" fill="#000000" mask="url(#mask-4)" points="-1.81184793 41.8231151 0.879506131 41.8231151 0.879506131 38.9937381 -1.81184793 38.9937381"></polygon>
                    <polygon id="Fill-204" fill="#000000" mask="url(#mask-4)" points="3.57204751 36.1661665 6.26251109 36.1661665 6.26251109 33.3385949 3.57204751 33.3385949"></polygon>
                    <polygon id="Fill-205" fill="#000000" mask="url(#mask-4)" points="3.57204751 38.9955435 6.26251109 38.9955435 6.26251109 36.1661665 3.57204751 36.1661665"></polygon>
                    <polygon id="Fill-206" fill="#000000" mask="url(#mask-4)" points="0.879506131 38.9955435 3.57204751 38.9955435 3.57204751 36.1661665 0.879506131 36.1661665"></polygon>
                    <polygon id="Fill-207" fill="#000000" mask="url(#mask-4)" points="0.879506131 41.8231151 3.57204751 41.8231151 3.57204751 38.9937381 0.879506131 38.9937381"></polygon>
                    <polygon id="Fill-208" fill="#000000" mask="url(#mask-4)" points="-1.81184793 44.6524922 0.879506131 44.6524922 0.879506131 41.8231151 -1.81184793 41.8231151"></polygon>
                    <polygon id="Fill-209" fill="#000000" mask="url(#mask-4)" points="-1.81184793 53.1364107 0.879506131 53.1364107 0.879506131 50.3082372 -1.81184793 50.3082372"></polygon>
                    <polygon id="Fill-210" fill="#FFFFFF" mask="url(#mask-4)" points="3.57204751 47.4800638 6.26251109 47.4800638 6.26251109 44.6512886 3.57204751 44.6512886"></polygon>
                    <polygon id="Fill-211" fill="#FFFFFF" mask="url(#mask-4)" points="3.57204751 50.3082372 6.26251109 50.3082372 6.26251109 47.4800638 3.57204751 47.4800638"></polygon>
                    <polygon id="Fill-212" fill="#FFFFFF" mask="url(#mask-4)" points="0.879506131 50.3082372 3.57204751 50.3082372 3.57204751 47.4800638 0.879506131 47.4800638"></polygon>
                    <polygon id="Fill-213" fill="#FFFFFF" mask="url(#mask-4)" points="0.879506131 53.1364107 3.57204751 53.1364107 3.57204751 50.3082372 0.879506131 50.3082372"></polygon>
                    <polygon id="Fill-214" fill="#FFFFFF" mask="url(#mask-4)" points="-1.81184793 55.9651859 0.879506131 55.9651859 0.879506131 53.1364107 -1.81184793 53.1364107"></polygon>
                </g>
                <path d="M33.7094209,2.84790688 C33.6695312,2.92682297 33.5879657,2.97832927 33.5010419,2.97832927 C33.4126297,2.97832927 33.3316596,2.92682297 33.2911745,2.84790688 L31.859611,0 L30.1455451,2.2171806 L32.001011,6.03768308 C32.0331609,6.10575573 32.0325655,6.18467182 32.0004156,6.25063603 L7,56 L27.4782943,56 L33.2911745,44.4445162 C33.3316596,44.3643952 33.4126297,44.3134914 33.5010419,44.3134914 C33.5879657,44.3134914 33.6695312,44.3643952 33.7094209,44.4445162 L39.5234918,56 L60,56 L35.0016682,6.25063603 C34.9674345,6.18467182 34.9668391,6.10575573 34.9995844,6.03768308 L36.8544549,2.2171806 L35.140389,0 L33.7094209,2.84790688 Z" id="Stroke-216" stroke="#FFFFFF" stroke-width="0.709"></path>
            </g>
        </g>
    </g>
</svg>